<svg width="1970" height="889" viewBox="0 0 1970 889" fill="none" xmlns="http://www.w3.org/2000/svg">
<path d="M1878.83 776.997C1879.61 787.088 1884.29 795.356 1891.97 801.138C1899.8 807.03 1910.77 810.362 1923.94 810.362C1938.03 810.362 1949.43 806.866 1957.29 800.639C1965.13 794.422 1969.5 785.449 1969.5 774.383C1969.5 765.676 1967.01 758.973 1961.54 753.744C1956.04 748.494 1947.49 744.682 1935.26 741.886L1935.25 741.885L1922.09 738.716C1922.09 738.716 1922.09 738.716 1922.09 738.716C1914.28 736.926 1908.73 734.815 1905.12 732.056C1901.48 729.27 1899.83 725.833 1899.83 721.494C1899.83 716.04 1902.37 711.526 1906.76 708.393C1911.15 705.27 1917.37 703.527 1924.77 703.527C1938.66 703.527 1948.49 710.199 1950.46 721.076H1967.56C1966.22 701.96 1948.89 688.443 1925.02 688.443C1912.05 688.443 1901.3 691.895 1893.8 697.891C1886.31 703.879 1882.03 712.428 1882.03 722.715C1882.03 731.222 1884.46 737.952 1889.52 743.173C1894.59 748.408 1902.35 752.175 1913.12 754.643L1913.12 754.644L1928.53 758.299L1878.83 776.997ZM1878.83 776.997H1896.26C1898.1 788.239 1909.46 795.191 1925.35 795.191C1932.89 795.191 1939.45 793.283 1944.15 790.025C1948.85 786.762 1951.7 782.132 1951.7 776.739C1951.7 772.112 1949.88 768.395 1946.05 765.389C1942.24 762.407 1936.46 760.132 1928.53 758.299L1878.83 776.997ZM498.895 818.631H839.767V846.553H465.335V304.087H835.896V332.014H498.895H498.395V332.514V550.204V550.704H498.895H815.773V578.627H498.895H498.395V579.127V818.131V818.631H498.895ZM1084.5 542.891L1263.31 303.896L1263.32 303.883L1496.46 12.8679L1106.14 567.424L1105.94 567.719L1106.15 568.009L1311.47 846.553H1271.68L1084.51 592.532L1084.1 591.987L1083.7 592.531L895.748 846.553H856.744L1063.61 568.006L1063.82 567.71L1063.61 567.413L870.672 304.087H908.909L1083.7 542.887L1084.1 543.432L1084.5 542.891ZM1521.46 332.014H1327.66V304.084H1750.09V332.01H1555.52H1555.02V332.51V846.55H1521.96V332.514V332.014H1521.46ZM42.3102 304.084L618.907 1149.14L387.453 846.763L387.44 846.746L36.0159 344.403L35.1111 343.11L35.1062 344.688L33.561 846.557H0.5V304.084H42.3102ZM1835.97 773.652V691.285H1853.52V773.731C1853.52 785.413 1850.08 794.556 1843.83 800.777C1837.59 807 1828.49 810.362 1817.07 810.362C1806.36 810.362 1797.38 807.102 1791.08 801.391C1784.89 795.78 1781.25 787.771 1781.13 778.053H1798.37C1798.61 782.799 1800.5 786.797 1803.66 789.633C1806.93 792.562 1811.51 794.219 1816.91 794.219C1822.93 794.219 1827.72 792.441 1831 788.932C1834.27 785.429 1835.97 780.273 1835.97 773.652ZM1747.16 808.896C1740.47 808.896 1735.48 803.843 1735.48 797.292C1735.48 790.747 1740.47 785.687 1747.16 785.687C1753.92 785.687 1758.84 790.741 1758.84 797.292C1758.84 803.842 1753.92 808.896 1747.16 808.896Z" fill="white" stroke="#0F1770"/>
</svg>
